<svg width="16" height="16" viewBox="0 0 16 16" fill="none" xmlns="http://www.w3.org/2000/svg">
<path d="M9.30231 1.01125L8.17407 6.93901L12.2613 6.95276L6.69782 14.9887L7.82607 8.46725L3.73907 8.453L9.30231 1.01125ZM9.30307 0.0112617C9.27607 0.0112617 9.24909 0.0122461 9.22259 0.0142305C9.04609 0.0284961 8.92907 0.0874961 8.79034 0.180746C8.71222 0.23283 8.64178 0.295607 8.58109 0.367246C8.56287 0.388752 8.54567 0.41111 8.52957 0.434246L2.92632 7.85C2.70507 8.15325 2.67257 8.55351 2.84257 8.88801C3.01232 9.22251 3.35557 9.43451 3.73182 9.43726L6.61832 9.45826L5.71082 14.805C5.62457 15.2645 5.86957 15.7225 6.30082 15.907C6.42615 15.9609 6.56115 15.9886 6.69756 15.9885C7.01181 15.9885 7.27006 15.8415 7.46382 15.576L13.0741 7.54C13.2953 7.23673 13.3276 6.83598 13.1578 6.50198C12.9881 6.16748 12.6448 5.95547 12.2686 5.95273L9.38207 5.94773L10.2798 1.24648C10.2988 1.16951 10.3084 1.09051 10.3083 1.01123C10.3083 0.47023 9.87757 0.0292305 9.33857 0.0117305C9.32659 0.0112305 9.31482 0.0112305 9.30309 0.0112305L9.30307 0.0112617Z" fill="#16a34a"/>
</svg>
