<svg width="16" height="16" viewBox="0 0 16 16" fill="none" xmlns="http://www.w3.org/2000/svg">
<path d="M8 16C12.4183 16 16 12.4183 16 8C16 3.58172 12.4183 0 8 0C3.58172 0 0 3.58172 0 8C0 12.4183 3.58172 16 8 16Z" fill="#F1B32B"/>
<path d="M7.875 2C4.63 2 2 4.63 2 7.875C2 11.12 4.63 13.75 7.875 13.75C11.12 13.75 13.75 11.12 13.75 7.875C13.75 6.31685 13.131 4.82252 12.0293 3.72075C10.9275 2.61897 9.43315 2 7.875 2ZM7.875 12.285C6.7054 12.285 5.58369 11.8204 4.75666 10.9933C3.92962 10.1663 3.465 9.0446 3.465 7.875C3.465 6.7054 3.92962 5.58369 4.75666 4.75666C5.58369 3.92962 6.7054 3.465 7.875 3.465C9.0446 3.465 10.1663 3.92962 10.9933 4.75666C11.8204 5.58369 12.285 6.7054 12.285 7.875C12.285 9.0446 11.8204 10.1663 10.9933 10.9933C10.1663 11.8204 9.0446 12.285 7.875 12.285ZM6.41 7.88L7.88 10.08L9.34 7.88L7.88 5.675L6.41 7.88Z" fill="white"/>
</svg>
